HIERARCHY
ROOT Hips
{
	OFFSET -0.001795 -0.223333 0.028219
	CHANNELS 6 Xposition Yposition Zposition Zrotation Yrotation Xrotation 
	JOINT LeftUpLeg
	{
		OFFSET 0.069520 -0.091406 -0.006815
		CHANNELS 3 Zrotation Yrotation Xrotation
		JOINT LeftLeg
		{
			OFFSET 0.034277 -0.375199 -0.004496
			CHANNELS 3 Zrotation Yrotation Xrotation
			JOINT LeftFoot
			{
				OFFSET -0.013596 -0.397961 -0.043693
				CHANNELS 3 Zrotation Yrotation Xrotation
				JOINT LeftToe
				{
					OFFSET 0.026358 -0.055791 0.119288
					CHANNELS 3 Zrotation Yrotation Xrotation
					End Site
					{
						OFFSET 0.000000 0.000000 0.000000
					}
				}
			}
		}
	}
	JOINT RightUpLeg
	{
		OFFSET -0.067670 -0.090522 -0.004320
		CHANNELS 3 Zrotation Yrotation Xrotation
		JOINT RightLeg
		{
			OFFSET -0.038290 -0.382569 -0.008850
			CHANNELS 3 Zrotation Yrotation Xrotation
			JOINT RightFoot
			{
				OFFSET 0.015774 -0.398415 -0.042312
				CHANNELS 3 Zrotation Yrotation Xrotation
				JOINT RightToe
				{
					OFFSET -0.025372 -0.048144 0.123348
					CHANNELS 3 Zrotation Yrotation Xrotation
					End Site
					{
						OFFSET 0.000000 0.000000 0.000000
					}
				}
			}
		}
	}
	JOINT Spine
	{
		OFFSET -0.002533 0.108963 -0.026696
		CHANNELS 3 Zrotation Yrotation Xrotation
		JOINT Spine1
		{
			OFFSET 0.005487 0.135180 0.001092
			CHANNELS 3 Zrotation Yrotation Xrotation
			JOINT Spine2
			{
				OFFSET 0.001457 0.052922 0.025425
				CHANNELS 3 Zrotation Yrotation Xrotation
				JOINT Neck
				{
					OFFSET -0.002778 0.213870 -0.042857
					CHANNELS 3 Zrotation Yrotation Xrotation
					JOINT Head
					{
						OFFSET 0.005152 0.064970 0.051349
						CHANNELS 3 Zrotation Yrotation Xrotation
						End Site
						{
							OFFSET 0.000000 0.000000 0.000000
						}
					}
				}
				JOINT LeftShoulder
				{
					OFFSET 0.078845 0.121749 -0.034090
					CHANNELS 3 Zrotation Yrotation Xrotation
					JOINT LeftArm
					{
						OFFSET 0.090977 0.030469 -0.008868
						CHANNELS 3 Zrotation Yrotation Xrotation
						JOINT LeftForeArm
						{
							OFFSET 0.259612 -0.012772 -0.027456
							CHANNELS 3 Zrotation Yrotation Xrotation
							JOINT LeftHand
							{
								OFFSET 0.249234 0.008986 -0.001171
								CHANNELS 3 Zrotation Yrotation Xrotation
								End Site
								{
									OFFSET 0.000000 0.000000 0.000000
								}
							}
						}
					}
				}
				JOINT RightShoulder
				{
					OFFSET -0.081759 0.118833 -0.038615
					CHANNELS 3 Zrotation Yrotation Xrotation
					JOINT RightArm
					{
						OFFSET -0.096012 0.032551 -0.009143
						CHANNELS 3 Zrotation Yrotation Xrotation
						JOINT RightForeArm
						{
							OFFSET -0.253742 -0.013329 -0.021401
							CHANNELS 3 Zrotation Yrotation Xrotation
							JOINT RightHand
							{
								OFFSET -0.255298 0.007772 -0.005559
								CHANNELS 3 Zrotation Yrotation Xrotation
								End Site
								{
									OFFSET 0.000000 0.000000 0.000000
								}
							}
						}
					}
				}
			}
		}
	}
}
MOTION
Frames: 13
Frame Time: 0.050000
-0.158228 0.929245 0.709517 -0.246105 -10.055404 2.089837 7.240992 0.138725 2.282391 -4.444018 0.575313 -1.995168 7.989779 16.946794 3.926324 0.000000 0.000000 0.000000 3.665740 0.859153 -7.712845 -0.569970 0.438751 7.103855 -1.764462 -5.648381 2.368254 0.000000 0.000000 0.000000 7.387243 -0.647873 5.643341 7.914702 -4.051546 5.263936 -8.521897 -8.365556 4.884738 1.979512 -0.971951 -19.821165 0.000000 0.000000 0.000000 -16.125568 -24.800432 14.406656 -28.247431 -44.755779 6.102476 48.753313 -13.219286 -3.747541 0.000000 0.000000 0.000000 20.658071 5.911037 -2.184531 56.665882 -5.112135 -7.167833 -2.845358 29.650010 -0.634190 0.000000 0.000000 0.000000 
-0.157041 0.928855 0.708654 -0.120723 -9.714000 2.203728 6.943722 0.128703 2.233941 -4.415593 0.567467 -2.144332 7.785174 16.554613 3.828872 0.000000 0.000000 0.000000 3.511467 0.933923 -8.277389 -0.611649 0.474313 7.597459 -2.004458 -6.067027 2.102332 0.000000 0.000000 0.000000 7.337052 -0.655460 5.690320 7.946421 -4.096353 5.534569 -8.253538 -8.425468 4.739200 2.159358 -1.077946 -19.458925 0.000000 0.000000 0.000000 -16.610362 -25.087648 14.696765 -27.552779 -44.186660 5.704749 49.160805 -13.673466 -4.004337 0.000000 0.000000 0.000000 20.819338 7.165730 -1.517961 56.306772 -4.156598 -6.613288 -3.450167 30.261180 -0.795423 0.000000 0.000000 0.000000 
-0.156061 0.929006 0.707707 0.100416 -9.330769 2.333694 6.658252 0.115822 2.118315 -4.692995 0.595489 -2.219632 7.827837 16.628726 4.057443 0.000000 0.000000 0.000000 3.202325 0.971616 -8.625759 -0.451900 0.457463 7.763196 -2.146051 -6.399122 2.117832 0.000000 0.000000 0.000000 7.316048 -0.646242 5.543468 7.961268 -4.129542 5.728583 -8.371139 -8.345265 4.668970 2.047038 -0.986242 -19.376242 0.000000 0.000000 0.000000 -17.145889 -25.419344 14.980166 -27.663554 -43.599003 5.560409 50.101441 -14.915953 -4.646575 0.000000 0.000000 0.000000 20.874083 8.292737 -0.836360 56.349257 -2.567171 -5.853926 -3.952006 31.205963 -0.946374 0.000000 0.000000 0.000000 
-0.155311 0.929359 0.706738 0.357655 -9.267620 2.472932 6.176448 0.092718 1.627937 -4.534285 0.577450 -2.039959 7.781874 16.534513 4.121150 0.000000 0.000000 0.000000 3.097932 1.031877 -9.102410 -0.673117 0.502296 7.929217 -2.137721 -6.261603 1.863202 0.000000 0.000000 0.000000 7.273029 -0.638761 5.445347 7.675972 -3.973650 5.632245 -8.300141 -7.995001 4.641546 2.332288 -1.129895 -19.010229 0.000000 0.000000 0.000000 -17.385647 -25.496749 15.004057 -29.087972 -42.587072 5.719560 50.812660 -16.803482 -5.535183 0.000000 0.000000 0.000000 20.445160 9.674494 0.088265 56.940978 -1.083883 -5.282455 -4.238276 32.384574 -1.047201 0.000000 0.000000 0.000000 
-0.154794 0.930130 0.705326 0.829910 -9.180374 2.423613 5.499087 0.080148 1.336517 -4.521933 0.576534 -1.862540 7.780489 16.526262 4.305072 0.000000 0.000000 0.000000 2.710746 1.026038 -9.175196 -0.842631 0.530187 7.953929 -2.260586 -6.491253 1.747578 0.000000 0.000000 0.000000 7.212086 -0.645766 5.559356 7.376652 -3.803430 5.361149 -8.404151 -7.177209 4.787375 2.605252 -1.207459 -18.933005 0.000000 0.000000 0.000000 -18.225162 -25.301877 14.919880 -30.411457 -41.129709 5.661034 51.795963 -20.060058 -7.150655 0.000000 0.000000 0.000000 20.771299 10.536205 0.777957 56.666646 0.566879 -4.496267 -4.628977 33.221496 -1.109640 0.000000 0.000000 0.000000 
-0.154259 0.930841 0.702817 1.172998 -8.923910 2.480094 5.044929 0.053810 0.910558 -4.665242 0.593314 -1.547405 7.610136 16.197781 4.302659 0.000000 0.000000 0.000000 2.399915 1.128772 -10.046068 -0.895127 0.588162 8.723822 -2.270426 -6.534024 1.776061 0.000000 0.000000 0.000000 7.303581 -0.679371 5.824833 7.060238 -3.639476 5.237761 -8.574046 -6.101416 4.759351 3.212136 -1.439806 -18.663181 0.000000 0.000000 0.000000 -18.286547 -25.200057 14.510571 -32.516961 -39.624653 5.862530 52.558260 -23.904413 -9.121716 0.000000 0.000000 0.000000 20.660160 11.431614 1.689692 56.870123 2.242314 -3.826140 -4.926612 34.033129 -1.096421 0.000000 0.000000 0.000000 
-0.153539 0.931034 0.698775 1.429226 -8.693472 2.533071 4.773288 -0.000873 -0.003702 -4.918874 0.635614 -0.355736 7.525731 16.030864 3.542076 0.000000 0.000000 0.000000 2.273701 1.205205 -10.670765 -1.172085 0.655888 9.056988 -2.205064 -6.380110 1.765923 0.000000 0.000000 0.000000 7.271297 -0.719119 6.232761 6.722656 -3.457614 5.007542 -8.347390 -4.784664 4.752825 3.624027 -1.529528 -18.691341 0.000000 0.000000 0.000000 -18.644556 -25.213180 14.214257 -34.012975 -38.385577 5.926567 52.175709 -27.758215 -10.950361 0.000000 0.000000 0.000000 20.876953 12.030478 2.454391 56.542397 4.002591 -3.054668 -5.583515 34.337011 -1.148396 0.000000 0.000000 0.000000 
-0.152532 0.931229 0.693530 1.455750 -8.242377 2.367873 4.526336 -0.047409 -0.758652 -4.984071 0.656713 0.893092 6.771242 14.530097 2.568536 0.000000 0.000000 0.000000 2.254327 1.297407 -11.356572 -0.976189 0.672383 9.839907 -2.382620 -7.127141 2.502634 0.000000 0.000000 0.000000 7.519731 -0.801583 6.945202 6.174836 -3.161658 4.494837 -8.144451 -3.516237 4.967971 4.566484 -1.906078 -18.898587 0.000000 0.000000 0.000000 -18.198045 -24.758504 13.417246 -36.253262 -37.308680 6.224869 50.902573 -31.908067 -12.628828 0.000000 0.000000 0.000000 20.524568 11.754989 2.793955 56.619261 5.110849 -2.696149 -5.435515 34.611046 -0.959567 0.000000 0.000000 0.000000 
-0.151100 0.930703 0.687634 1.505915 -8.101151 2.028120 4.376030 -0.090271 -1.541021 -5.209265 0.724141 2.803048 6.472535 13.848319 0.833313 0.000000 0.000000 0.000000 2.196050 1.350180 -11.760595 -0.940387 0.710062 10.497546 -2.350202 -7.197492 2.836961 0.000000 0.000000 0.000000 7.621693 -0.855095 7.513094 5.495005 -2.808606 4.244101 -7.687628 -1.900305 5.270823 5.016437 -1.982265 -19.146447 0.000000 0.000000 0.000000 -18.216542 -24.797074 12.976986 -37.451032 -35.812600 6.073013 50.247509 -35.587416 -14.311322 0.000000 0.000000 0.000000 20.136675 11.401286 3.127447 56.526897 6.185314 -2.359234 -5.047487 34.654099 -0.670324 0.000000 0.000000 0.000000 
-0.149262 0.930129 0.681621 1.391032 -7.701715 1.787575 3.757978 -0.137707 -2.151324 -4.875192 0.700731 4.617758 6.023748 12.758770 -1.193523 0.000000 0.000000 0.000000 2.251365 1.435301 -12.350621 -0.693290 0.680590 10.805183 -2.486441 -7.817592 3.601228 0.000000 0.000000 0.000000 8.002184 -0.889350 7.625664 5.030524 -2.578610 4.128698 -7.713496 -0.382086 5.442489 6.005880 -2.332326 -19.437702 0.000000 0.000000 0.000000 -17.670451 -24.770795 12.337093 -39.647262 -34.336474 6.158381 47.697478 -38.129649 -14.788527 0.000000 0.000000 0.000000 19.918652 10.684014 3.264273 56.909556 6.852314 -2.202222 -5.127694 34.264624 -0.509486 0.000000 0.000000 0.000000 
-0.146709 0.929493 0.675149 1.284812 -7.286458 1.204539 3.303253 -0.124728 -1.856427 -4.968389 0.733961 5.688106 5.697478 11.919681 -2.321047 0.000000 0.000000 0.000000 2.311495 1.439098 -12.315023 -0.509441 0.666017 11.195254 -2.475970 -7.950832 4.044433 0.000000 0.000000 0.000000 8.221689 -0.892567 7.642483 4.373542 -2.245036 3.833405 -7.196736 0.162339 5.941765 6.313186 -2.439611 -19.611779 0.000000 0.000000 0.000000 -17.875002 -24.195426 11.887222 -41.107422 -32.287902 5.718271 44.054162 -39.802456 -14.176431 0.000000 0.000000 0.000000 19.367199 9.588499 2.861189 57.157948 6.488199 -2.491341 -4.036646 33.908319 -0.124305 0.000000 0.000000 0.000000 
-0.143220 0.928717 0.667254 1.157012 -7.081556 0.358194 2.325448 -0.100252 -1.360515 -4.639180 0.685633 6.388423 5.325596 10.941095 -3.441684 0.000000 0.000000 0.000000 2.360939 1.498320 -12.675616 -0.498143 0.718105 12.064774 -2.456865 -8.233517 4.916021 0.000000 0.000000 0.000000 8.168229 -0.880891 7.794957 4.016177 -2.064141 3.571857 -7.072079 0.925278 6.572489 7.118540 -2.785008 -19.977864 0.000000 0.000000 0.000000 -17.610232 -23.873530 11.425892 -42.903983 -29.696654 5.092800 39.602822 -40.940603 -12.985293 0.000000 0.000000 0.000000 19.005293 8.742071 2.649361 57.612956 5.639171 -3.042717 -3.895714 34.523303 0.004003 0.000000 0.000000 0.000000 
-0.138374 0.927122 0.656809 0.866508 -7.148304 -0.185966 1.592387 -0.082293 -1.049833 -4.438349 0.657670 6.806837 5.218365 10.511736 -4.808301 0.000000 0.000000 0.000000 2.248839 1.614748 -13.564161 -0.393871 0.753267 12.902846 -2.410250 -8.167185 4.993610 0.000000 0.000000 0.000000 7.846257 -0.871254 8.085239 3.600447 -1.830425 2.890703 -6.646082 1.366027 7.037867 7.781014 -3.061243 -20.575893 0.000000 0.000000 0.000000 -17.044870 -23.189860 10.875503 -45.127955 -27.625502 4.639091 34.236698 -40.693421 -10.845426 0.000000 0.000000 0.000000 19.045823 7.957700 2.310989 58.091815 5.034421 -3.430472 -4.051422 33.737721 0.000121 0.000000 0.000000 0.000000 
